<svg xmlns="http://www.w3.org/2000/svg" width="512" height="512" viewBox="0 0 512 512">
  <defs>
    <linearGradient id="bg" x1="0" y1="0" x2="1" y2="1">
      <stop offset="0%" stop-color="#3a2418"/>
      <stop offset="50%" stop-color="#4a2e1c"/>
      <stop offset="100%" stop-color="#2e1a10"/>
    </linearGradient>
    <linearGradient id="staff" x1="0" y1="0" x2="1" y2="0">
      <stop offset="0%" stop-color="#8a6914"/>
      <stop offset="40%" stop-color="#c4a035"/>
      <stop offset="60%" stop-color="#c4a035"/>
      <stop offset="100%" stop-color="#7a5a10"/>
    </linearGradient>
    <linearGradient id="snake" x1="0" y1="0" x2="1" y2="0">
      <stop offset="0%" stop-color="#1a4a28"/>
      <stop offset="50%" stop-color="#2d6b3a"/>
      <stop offset="100%" stop-color="#1a4a28"/>
    </linearGradient>
    <linearGradient id="leaf" x1="0.5" y1="1" x2="0.5" y2="0">
      <stop offset="0%" stop-color="#2d6b3a"/>
      <stop offset="100%" stop-color="#4a8b50"/>
    </linearGradient>
  </defs>
  <rect width="512" height="512" rx="96" fill="url(#bg)"/>
  <line x1="0" y1="80" x2="512" y2="80" stroke="#3a2010" stroke-width="0.5" opacity="0.3"/>
  <line x1="0" y1="160" x2="512" y2="160" stroke="#3a2010" stroke-width="0.5" opacity="0.3"/>
  <line x1="0" y1="240" x2="512" y2="240" stroke="#3a2010" stroke-width="0.5" opacity="0.3"/>
  <line x1="0" y1="320" x2="512" y2="320" stroke="#3a2010" stroke-width="0.5" opacity="0.3"/>
  <line x1="0" y1="400" x2="512" y2="400" stroke="#3a2010" stroke-width="0.5" opacity="0.3"/>
  <rect x="249" y="100" width="14" height="330" rx="4" fill="url(#staff)"/>
  <rect x="251" y="100" width="4" height="330" rx="2" fill="#d4b040" opacity="0.4"/>
  <circle cx="256" cy="100" r="12" fill="#c4a035"/>
  <circle cx="253" cy="97" r="4" fill="#d4b040" opacity="0.5"/>
  <path d="M 256 410 Q 200 400, 195 370 Q 190 340, 256 330" stroke="url(#snake)" stroke-width="18" fill="none" stroke-linecap="round"/>
  <path d="M 256 410 Q 200 400, 195 370 Q 190 340, 256 330" stroke="#3a7b45" stroke-width="8" fill="none" stroke-linecap="round" opacity="0.3"/>
  <path d="M 256 330 Q 312 320, 317 290 Q 322 260, 256 250" stroke="url(#snake)" stroke-width="18" fill="none" stroke-linecap="round"/>
  <path d="M 256 330 Q 312 320, 317 290 Q 322 260, 256 250" stroke="#3a7b45" stroke-width="8" fill="none" stroke-linecap="round" opacity="0.3"/>
  <path d="M 256 250 Q 200 240, 195 210 Q 190 180, 256 170" stroke="url(#snake)" stroke-width="18" fill="none" stroke-linecap="round"/>
  <path d="M 256 250 Q 200 240, 195 210 Q 190 180, 256 170" stroke="#3a7b45" stroke-width="8" fill="none" stroke-linecap="round" opacity="0.3"/>
  <path d="M 256 170 Q 312 160, 317 130 Q 320 110, 290 100" stroke="url(#snake)" stroke-width="18" fill="none" stroke-linecap="round"/>
  <path d="M 256 170 Q 312 160, 317 130 Q 320 110, 290 100" stroke="#3a7b45" stroke-width="8" fill="none" stroke-linecap="round" opacity="0.3"/>
  <path d="M 256 170 Q 195 165, 190 140 Q 187 120, 220 100" stroke="url(#snake)" stroke-width="16" fill="none" stroke-linecap="round"/>
  <path d="M 256 170 Q 195 165, 190 140 Q 187 120, 220 100" stroke="#3a7b45" stroke-width="6" fill="none" stroke-linecap="round" opacity="0.3"/>
  <ellipse cx="290" cy="96" rx="12" ry="8" fill="#2d6b3a"/>
  <circle cx="294" cy="94" r="2.5" fill="#111"/>
  <ellipse cx="220" cy="96" rx="12" ry="8" fill="#2d6b3a"/>
  <circle cx="216" cy="94" r="2.5" fill="#111"/>
  <path d="M 256 88 Q 240 50, 256 15 Q 260 50, 258 88" fill="url(#leaf)"/>
  <path d="M 256 88 Q 230 55, 240 18 Q 248 55, 254 88" fill="url(#leaf)" opacity="0.9"/>
  <path d="M 256 88 Q 270 55, 268 18 Q 262 55, 258 88" fill="url(#leaf)" opacity="0.9"/>
  <path d="M 256 88 Q 218 60, 225 25 Q 240 60, 252 88" fill="url(#leaf)" opacity="0.8"/>
  <path d="M 256 88 Q 290 60, 285 25 Q 272 60, 260 88" fill="url(#leaf)" opacity="0.8"/>
  <path d="M 256 88 Q 210 70, 212 35 Q 232 68, 250 88" fill="#2d6b3a" opacity="0.7"/>
  <path d="M 256 88 Q 300 70, 298 35 Q 278 68, 262 88" fill="#2d6b3a" opacity="0.7"/>
  <text x="256" y="470" text-anchor="middle" font-family="Arial Black, Arial, sans-serif" font-size="32" font-weight="900" fill="#c4a035" letter-spacing="6" opacity="0.85">BENAM</text>
</svg>
